<?xml version="1.0" encoding="utf-8"?>
<!-- Generator: Adobe Illustrator 15.0.2, SVG Export Plug-In . SVG Version: 6.00 Build 0)  -->
<!DOCTYPE svg PUBLIC "-//W3C//DTD SVG 1.1//EN" "http://www.w3.org/Graphics/SVG/1.1/DTD/svg11.dtd">
<svg version="1.1" id="Livello_1" xmlns="http://www.w3.org/2000/svg" xmlns:xlink="http://www.w3.org/1999/xlink" x="0px" y="0px"
	 width="273.14px" height="227.445px" viewBox="0 0 273.14 227.445" enable-background="new 0 0 273.14 227.445"
	 xml:space="preserve">
<path fill="#FFFFFF" d="M90.849,10.224H83.81v1.155c3.887,0,7.039,2.417,7.039,5.358v128.908c0,2.941-3.152,5.358-7.039,5.358v1.156
	h22.482v-1.156c-3.887,0-7.039-2.417-7.039-5.358V16.843c0-2.941,3.152-5.358,7.039-5.358v-1.261h-7.039H90.849z"/>
<path fill="#FFFFFF" d="M46.304,11.38L46.304,11.38c3.677,0,6.619,2.522,6.198,5.253L36.428,125.054L20.459,16.738
	c-0.42-2.836,2.417-5.253,6.199-5.253v-1.261H4.07v1.155c3.992,0,7.459,2.312,7.879,5.358l19.961,135.421h0.525h7.985h0.525
	L60.907,16.738c0.42-3.047,3.887-5.358,7.879-5.358v-1.155H46.304V11.38z"/>
<path fill="#FFFFFF" d="M186.138,10.224h-22.483v1.155c3.677,0,6.619,2.522,6.198,5.253l-15.969,108.421L137.811,16.738
	c-0.42-2.836,2.416-5.253,6.198-5.253v-1.261h-22.482v1.155c3.992,0,7.459,2.312,7.879,5.358l19.961,135.421h0.526h7.984h0.526
	l19.96-135.421c0.421-3.047,3.888-5.358,7.88-5.358L186.138,10.224L186.138,10.224z"/>
<path fill="#FFFFFF" d="M266.928,68.217c-0.42-1.05-1.576-1.576-2.731-1.155l0,0c-2.416,0.945-4.623,1.576-6.934,2.311
	c-2.207,0.735-4.518,1.366-6.619,2.312c-2.207,0.84-4.308,1.891-6.304,2.942c-1.996,1.155-4.097,2.311-5.988,3.677
	c-3.677,2.417-7.04,5.358-10.085,8.51L216.92,10.224h-0.526h-7.984h-0.525l-19.962,135.421c-0.42,3.046-3.887,5.358-7.88,5.358
	v1.156h22.483v-1.156c-3.677,0-6.619-2.522-6.198-5.253l5.568-37.926c0,0.105,0,0.105,0,0.21c0.105,0.315,0.21,0.735,0.315,1.05
	s0.314,0.735,0.525,1.05c0.42,0.631,0.945,1.261,1.681,1.681c1.261,0.841,2.837,1.261,4.308,1.156
	c0.735-0.105,1.47-0.21,2.101-0.525c0.315-0.105,0.631-0.315,0.945-0.421c0.315-0.104,0.631-0.315,0.841-0.525
	c1.155-0.735,1.996-1.786,2.836-2.732c0.736-1.05,1.366-2.101,1.996-3.151l1.577-3.047c0.525-0.945,1.05-1.996,1.681-2.941
	c0.21-0.315,0.419-0.631,0.63-1.051l6.935,47.171c0.419,2.837-2.417,5.253-6.199,5.253v1.156h22.483v-1.156
	c-3.992,0-7.459-2.312-7.879-5.358l-8.405-56.732c3.151-3.572,6.619-6.829,10.505-9.665c3.678-2.731,7.775-4.938,12.082-6.619
	c2.101-0.84,4.308-1.576,6.619-1.891c2.207-0.315,4.623-0.42,6.829,0.21c0.421,0.105,0.84,0.105,1.261-0.105
	C266.823,70.528,267.348,69.267,266.928,68.217 M203.052,100.575l9.35-63.14l5.988,40.763c-0.63,0.315-1.05,0.84-1.365,1.471
	c-1.051,2.101-2.312,4.097-3.677,5.988c-1.366,1.891-2.837,3.782-4.308,5.568c-0.735,0.945-1.47,1.891-2.101,2.836
	c-0.631,0.946-1.261,1.997-1.891,2.942C204.208,98.158,203.577,99.314,203.052,100.575 M218.811,98.264
	c-0.631,0.945-1.261,1.996-1.891,2.941l-1.786,3.047c-1.156,1.891-2.417,3.677-4.098,4.728c-0.21,0.105-0.419,0.21-0.63,0.315
	c-0.21,0.105-0.42,0.21-0.63,0.315c-0.421,0.21-0.841,0.21-1.261,0.21c-0.84,0-1.681-0.21-2.312-0.63
	c-1.26-0.736-1.576-2.732-1.155-4.728c0.42-1.996,1.365-3.887,2.521-5.778c0.525-0.945,1.261-1.891,1.891-2.836
	c0.63-0.946,1.26-1.891,1.996-2.731c1.365-1.891,2.942-3.467,4.623-5.043c1.051-0.945,2.206-1.891,3.361-2.731l1.472,9.875
	C220.176,96.267,219.546,97.213,218.811,98.264"/>
<path fill="#E9408F" d="M231.943,164.241c-0.42-2.732-4.833-1.996-6.724-1.786c-3.152,0.42-6.198,1.156-9.245,2.101
	c-2.417,0.735-4.412,1.891-6.829,0.525l0,0c1.156-0.63,2.207-1.366,3.047-2.311c1.05-1.156,1.996-3.047,0.945-4.623
	c-0.945-1.471-3.152-1.156-4.518-0.525c-1.681,0.84-2.626,2.836-2.626,4.728c0,0.21,0,0.525,0.104,0.735
	c0.105,0.42,0.105,0.735,0.315,1.156c-0.315,0.105-0.525,0.315-0.84,0.42c-1.261,0.525-2.521,1.05-3.782,1.576
	c0.21-0.735,0.421-1.576,0.421-2.417c0-0.735-0.21-1.471-0.526-2.206c-0.314-0.841-0.735-1.786-1.786-1.891
	c-0.525,0.105-0.84,0.42-1.261,0.735c-0.735,0.84-1.471,1.786-2.206,2.626c-1.051,1.261-2.207,2.521-3.467,3.782
	c-0.841,0.84-1.682,1.576-2.522,2.311c-0.735,0.525-1.471,1.051-2.206,1.576c-0.736,0.525-1.471,0.84-2.312,1.261
	c-1.261,0.525-3.047,0.315-4.412-0.42l0,0c1.156-0.63,2.102-1.366,2.942-2.311c0.945-1.156,1.891-3.047,0.84-4.623
	c-0.946-1.471-3.152-1.156-4.518-0.42c-1.682,0.946-2.627,2.941-2.522,4.728c0,0.21,0,0.525,0.105,0.735
	c0.105,0.315,0.105,0.735,0.315,1.051h-0.105c-0.315,0.21-0.63,0.315-0.945,0.525c-0.316,0.21-0.63,0.315-0.946,0.42
	c-0.525,0.209-1.156,0.209-1.996,0.315c-0.21,0-0.525,0-0.63-0.21c-0.105-0.104-0.21-0.315-0.21-0.525
	c0-0.21,0.105-0.315,0.21-0.525c0-0.105,0.105-0.105,0.105-0.21c0.21-0.315,0.314-0.63,0.419-0.945
	c0.21-0.42,0.421-1.261,0.21-1.996c-0.105-0.63-0.525-1.156-1.051-1.471c-0.314-0.21-0.63-0.315-1.051-0.525
	c-0.314-0.105-0.63-0.21-0.945-0.21c-0.525,0-1.051-0.105-1.576-0.315c-0.42-0.21-0.735-0.42-0.945-0.84
	c-0.105-0.105-0.21-0.315-0.21-0.525c-0.105-0.21-0.209-0.42-0.314-0.525c-0.315-0.525-0.736-0.84-1.156-0.945
	c-0.63-0.21-1.471-0.105-1.786,0.525c-0.315,0.525-0.315,1.26,0,1.786c0.21,0.42,0.63,0.631,0.84,0.84
	c0.105,0.105,0.315,0.21,0.42,0.316c0.315,0.209,0.631,0.42,0.841,0.63c0.314,0.315,0.419,0.63,0.209,1.156
	c-0.105,0.315-0.209,0.63-0.314,0.946c-0.42,0.945-1.156,1.786-2.102,2.521c-0.735,0.63-1.575,1.051-2.312,1.261h-0.105
	c0,0,0,0,0-0.105s0.105-0.105,0.105-0.21c1.051-1.575,1.051-3.572,0.105-4.938c-1.26-1.681-3.046-2.417-4.937-1.996
	c-0.42,0.105-0.736,0.21-1.051,0.315c0.946-1.681,1.681-3.046,2.101-3.887c4.938-8.72,9.981-17.23,16.285-25.004
	c1.891-2.312,3.887-4.728,5.989-6.934c1.786-1.891,3.781-3.677,6.618-4.097c2.837-0.42,5.254,0.84,6.094,3.467
	c0.315,0.946,0.525,1.891,0.735,2.731c0.946-2.417,0-5.778-2.207-7.25c-0.525-0.42-1.26-0.735-1.891-0.735
	c-2.521-0.21-4.937,0.105-7.039,1.681c-1.47,1.156-2.941,2.311-4.202,3.677c-6.094,6.619-11.347,13.973-16.074,21.643
	c-3.362,5.463-6.409,11.136-9.666,16.704l-0.105,0.105c-0.209,0.42-0.42,0.945-0.63,1.366c-0.21,0.315-0.315,0.63-0.421,0.945
	c-1.155,2.312-2.206,4.623-3.572,6.829c-3.992,7.879-7.984,15.759-12.082,23.639c-1.365,2.521-3.047,4.833-4.623,7.249
	c-0.315,0.42-0.63,0.945-1.051,1.261c-0.315,0.21-0.945,0.525-1.155,0.42c-0.315-0.315-0.63-0.84-0.63-1.366
	c0.105-0.945,0.315-1.786,0.525-2.626c2.311-7.459,5.568-14.603,9.456-21.327c2.206-3.993,7.774-13.027,7.984-13.447
	c-0.105-0.105,5.568-8.195,5.568-8.195c0.105,0,0.105,0.105,0.21,0.105c0,0.105,0,0.21,0,0.315c0,0.525,0.105,1.051,0.735,1.051
	c0.735,0,0.735-0.63,0.735-1.156c0-0.945,0.105-1.891-0.105-2.836c0-0.42-0.315-1.051-0.735-1.156
	c-0.315-0.105-0.946,0.21-1.261,0.525c-0.945,1.155-1.681,2.417-2.521,3.677c-2.416,3.677-4.728,7.354-7.144,11.031
	c-4.098,6.199-7.67,12.712-10.716,19.541c-1.786,4.098-3.572,8.09-4.623,12.397c-0.21,0.735-0.315,1.471-0.315,2.207
	c-0.105,1.156,0.525,2.101,1.471,2.731c0.945,0.63,1.891,0.315,2.731-0.21c0.42-0.315,0.945-0.631,1.261-1.051
	c0.945-1.156,1.786-2.206,2.626-3.362c4.098-6.304,7.354-13.027,10.715-19.646c0.946-1.786,3.888-7.669,6.935-13.447
	c0.525,0.63,1.366,1.051,2.416,1.261c1.156,0.315,2.312,0.42,3.362,0.42c1.47,0,2.942-0.21,4.307-0.736
	c1.996-0.735,4.517-1.996,5.463-4.728c0.21-0.525,0.315-0.946,0.42-1.471c0-0.21,0.105-0.42,0.105-0.63c0,0,0-0.105,0.105-0.105
	c0.209,0,0.525,0.105,0.735,0.105c0.735,0.105,1.365,0.315,2.102,0.42c0.314,0.105,0.525,0.21,0.63,0.42
	c0.105,0.315,0,0.525-0.105,0.84l-0.105,0.105c-0.315,0.525-0.63,1.156-0.84,1.681c-0.42,1.261-0.315,2.102,0.421,2.521
	c0.419,0.21,0.945,0.315,1.365,0.42c0.735,0.105,1.576,0.105,2.312-0.105c0.735-0.105,1.471-0.315,2.101-0.63c0,0,0,0,0.105,0
	c0.21-0.105,0.315-0.105,0.526-0.21l0,0c0.209-0.105,0.42-0.105,0.63-0.21c0,0,0.63,0.525,0.63,0.63
	c0.21,0.21,0.526,0.315,0.84,0.42c1.051,0.42,2.207,0.525,3.362,0.42c0.84-0.104,1.681-0.315,2.521-0.525
	c0.84-0.315,1.575-0.735,2.312-1.155c0.735-0.42,1.47-0.84,2.206-1.366c2.942-2.102,5.463-4.728,7.564-7.669
	c0.105-0.21,0.315-0.42,0.42-0.525c0.315,0.945,0.209,2.207,0.105,3.152c-0.105,0.525-0.421,1.05-0.631,1.576
	c-0.209,0.525-0.525,1.051-0.84,1.576c-0.735,1.051-1.471,1.891-2.732,2.311c-0.419,0.105-0.945,0.315-1.261,0.735
	c-0.314,0.525,0.21,1.156,0.736,1.366c0.42,0.21,0.946,0.21,1.366,0c1.261-0.315,1.891-1.47,2.626-2.311
	c1.261-1.471,2.837-2.626,4.519-3.572c0.525-0.315,1.155-0.735,1.786-0.945c0.42-0.105,0.735-0.21,1.155-0.42l0,0
	c0.21-0.105,0.42-0.105,0.631-0.21c0,0,0.63,0.525,0.63,0.63c0.21,0.21,0.525,0.315,0.84,0.42c2.837,1.05,5.568,0.105,8.195-0.946
	c2.207-0.84,4.518-1.471,6.829-1.786c1.261-0.209,2.521-0.525,3.782-0.63c1.051,0,2.626,0.525,2.207,1.787
	c-0.526,1.366-2.417,1.891-3.573,2.521c-6.829,3.152-13.552,6.409-17.334,12.817c0,0.104-0.105,0.104-0.105,0.21
	c0,0.105,0.105,0.105,0.21,0.105s0.105-0.105,0.21-0.21c3.887-5.883,11.872-8.404,17.86-11.346
	C229.001,168.444,232.468,167.078,231.943,164.241 M163.025,170.335c-0.105,0.735-0.946,1.575-1.996,2.101
	c-1.156,0.525-2.207,0.735-2.942,0.315c-0.21-0.105-0.421-0.315-0.63-0.42c-0.105-0.105-0.105-0.21-0.21-0.21v-0.105
	c-0.21-0.42-0.105-1.051,0.105-1.576c0.314-0.84,1.051-1.471,1.786-1.786h0.105c0.314-0.105,0.63-0.209,0.84-0.42
	c0.105-0.105,0.21-0.21,0.21-0.315c0-0.105,0-0.21-0.21-0.315s-0.42-0.105-0.63-0.105c-0.105,0-0.105,0-0.21,0s-0.315,0-0.421,0.105
	l0,0h-0.105c-0.945,0.42-1.786,1.261-2.416,2.732c-0.315,0.63-0.526,1.26-0.42,1.996c0,0,0,0.105,0,0.21v0.105c0,0,0,0-0.105,0
	c-0.419-0.21-0.735-0.525-0.84-0.945l0,0c0.631-1.156,1.156-2.312,1.682-3.362c0.84-0.735,1.786-1.26,2.941-1.471
	c0.841-0.21,1.891,0.105,2.627,0.945C162.814,168.444,163.13,169.389,163.025,170.335 M180.569,170.229c0,0,0-0.525,0-0.63
	c0-0.84,0.105-1.786,0.525-2.626c0.315-0.735,0.84-1.261,1.472-1.576c0.314-0.105,0.735-0.209,1.051,0
	c0.63,0.315,0.63,1.051,0.314,1.682c-0.314,0.63-0.735,1.05-1.26,1.47C182.04,169.073,181.305,169.704,180.569,170.229
	 M208.095,163.716c0,0,0-0.525,0-0.63c0-0.84,0.21-1.786,0.525-2.626c0.315-0.63,0.841-1.261,1.576-1.576
	c0.315-0.105,0.735-0.105,1.051,0c0.63,0.315,0.63,1.051,0.315,1.682c-0.315,0.63-0.736,1.05-1.261,1.47
	C209.566,162.665,208.831,163.19,208.095,163.716"/>
<path fill="#E9408F" d="M77.506,183.467c-0.315,0.105-0.525,0.63-0.63,0.945c-0.525,0.946-0.736,1.682-1.261,2.627
	c-0.21,0.42-0.63,0.84-1.051,0.735c-0.315-0.105-0.63-0.42-0.735-0.735c-0.525-1.156-0.841-1.996-0.735-3.257
	c0-0.63,0.105-1.261,0-1.891c-0.105-0.42-0.315-0.945-0.631-1.261c-0.42-0.42-1.155-0.735-1.576-0.42
	c-0.315,0.315-0.42,0.736-0.525,1.261c-0.315,1.996-1.576,3.782-2.732,5.463c-0.42,0.525-0.735,1.05-1.156,1.576
	c-0.104,0.105-0.315,0.315-0.525,0.21c-0.104-0.105-0.104-0.21-0.104-0.315c0.104-2.102,0.63-4.202,1.576-6.093
	c0.105-0.21,0.315-0.525,0.315-0.736c0-0.42-0.525-0.84-0.946-0.735c-0.42,0.105-0.63,0.525-0.841,0.84
	c-0.315,0.525-0.63,1.156-0.84,1.681c-0.735,1.471-1.576,3.047-1.681,4.728c-0.105,0.736,0,1.576,0.42,2.311
	c0.631,0.946,1.997,1.156,3.047,0.736c1.051-0.42,1.891-1.261,2.521-2.206c0.84-1.051,1.471-2.207,1.891-3.467
	c0.315,1.051,0.84,1.997,1.471,2.837c0.42,0.63,1.051,1.26,1.891,1.26c0.735,0,1.366-0.315,1.891-0.945
	c0.63-0.84,1.156-1.891,1.471-2.941c0.21-0.42,0.315-0.946,0.21-1.471C78.032,183.886,77.927,183.257,77.506,183.467"/>
<path fill="#E9408F" d="M81.184,176.638c0.105-0.105,0.21-0.21,0.21-0.42c0-0.525-0.315-0.945-0.63-1.366
	c-0.525-0.735-1.155-1.366-1.681-2.101c-0.315-0.315-0.63-0.735-1.051-0.735c-0.735,0-0.945,0.735-0.63,1.26
	c0.42,0.736,1.051,1.261,1.576,1.891c0.525,0.631,1.156,1.156,1.997,1.366C80.974,176.638,81.079,176.638,81.184,176.638"/>
<path fill="#E9408F" d="M63.639,174.957c0.42,0.735,1.156,1.366,1.786,1.996c0.105,0.105,0.63-0.21,0.735-0.42
	c0.42-0.84-0.735-2.626-1.681-2.626C63.954,173.906,63.324,174.432,63.639,174.957"/>
<path fill="#E9408F" d="M61.538,188.615c-0.21,0-0.63,0.315-0.84,0.525c-0.21,0.525-0.42,1.051-0.525,1.576c0-0.42,0-0.84,0-1.261
	c0-1.576,0.105-3.046-0.105-4.623c-0.21-1.681-1.366-2.731-2.942-2.836c-0.84-0.105-1.681,0.105-2.416,0.315
	c-3.257,0.945-5.989,2.941-8.825,4.728c-0.315,0.21-0.63,0.315-0.84,0.525c0.945-1.891,1.891-3.782,2.836-5.568
	c1.786-3.257,3.887-6.304,5.778-9.455c2.417-3.888,4.728-7.775,7.564-11.347c4.623-5.883,9.455-11.557,15.548-16.074
	c2.731-1.996,5.568-3.782,8.93-4.728c0.525-0.105,1.05-0.105,1.471-0.315c0.42-0.315,0.315-0.84,0-1.05l0,0
	c-1.471-1.051-4.413,0.735-5.778,1.26c-2.417,1.051-4.623,2.521-6.724,4.097c-6.619,4.833-11.767,11.136-16.494,17.755
	c-1.996,2.837-3.677,5.988-5.673,8.93c-3.887,5.778-7.354,11.767-10.296,18.07c-2.416,1.471-4.833,3.047-7.249,4.623
	c0.21-0.525,0.42-0.946,0.42-1.051c0.735-1.471,1.366-2.941,2.206-4.307c1.471-2.521,2.942-5.148,4.518-7.564
	c0.736-1.26,1.471-2.521,2.312-3.677c0.42-0.631,0.84-1.156,1.366-1.681c0.525-0.525,1.681-1.891,0.84-2.521
	c-0.735-0.525-1.786,0.84-2.101,1.366c-0.525,0.84-1.051,1.576-1.576,2.417c-1.05,1.576-2.101,3.046-3.046,4.728
	c-2.731,4.623-5.358,9.14-7.354,13.973c-0.315,0.21-0.631,0.42-0.946,0.63c-2.626,1.576-5.778,3.467-8.93,3.467
	c-0.84,0.105-1.786,0-2.416-0.525s-0.841-1.261-0.946-1.996c-0.315-1.681-0.105-3.362,0.525-4.938
	c0.105-0.315,0.21-0.525,0.21-0.841s-0.105-0.63-0.42-0.735c-0.315-0.105-0.736,0.105-0.946,0.315c-0.42,0.42-0.63,0.945-0.84,1.47
	c-0.63,1.681-0.735,3.572-0.315,5.358c0.315,1.261,0.841,2.521,1.997,3.152c0.735,0.42,1.576,0.525,2.416,0.525
	c3.467,0.105,6.619-1.471,9.561-3.152c-0.525,1.576-1.051,3.152-1.366,4.833c-0.525,2.311-0.84,4.728-0.946,7.039
	c-0.105,1.261-0.105,2.521,0,3.782c0.105,1.156,0.105,2.416,0.525,3.572c0.42,0.945,1.366,1.786,2.417,1.681
	c0.946-0.21,1.576-1.051,1.891-1.996c0.42-1.156,0.63-2.417,1.05-3.677c1.051-3.362,1.891-6.829,3.047-10.191
	c1.156-3.467,2.837-6.724,4.203-10.085c0.21-0.63,0.525-1.156,0.735-1.786c1.891-1.155,3.677-2.312,5.568-3.467
	c0.946-0.525,1.786-1.156,2.731-1.681c1.261-0.735,2.521-1.261,3.887-1.681c1.681-0.631,2.521-0.105,2.626,1.681
	c0.105,1.366,0,2.836,0,4.202c0,0.946,0.105,1.787,0.42,2.627c0.42,1.261,1.786,1.576,2.626,0.84s1.576-3.467,1.156-4.517
	C62.168,189.034,61.853,188.615,61.538,188.615 M36.218,204.163c-0.735,1.891-1.366,3.677-1.891,5.568
	c-0.315,0.946-0.525,1.891-0.735,2.942c-0.21,0.946-0.315,1.891-0.63,2.837c-0.21,0.525-0.735,1.366-1.156,0.525
	c-0.21-0.42-0.315-0.946-0.42-1.471c-0.315-1.681-0.315-3.362-0.21-5.148c0.315-4.098,1.681-8.089,2.836-11.977v-0.104
	c0-0.105,0.105-0.315,0.21-0.63c0.21-0.105,0.42-0.21,0.63-0.42c1.996-1.156,3.992-2.312,5.988-3.467
	C39.16,196.599,37.584,200.381,36.218,204.163"/>
<path fill="#E9408F" d="M129.826,177.583v-0.105c-0.105-0.315-0.315-0.525-0.525-0.735c-1.471-1.261-3.467-1.471-5.357-1.576
	c-3.047-0.105-6.094,0.105-9.14,0.631c0.21,0,0.42-1.051,0.525-1.261c0.105-0.42,0.105-0.945,0-1.471
	c-0.105-0.946-0.525-1.891-1.261-2.522c-0.315-0.315-0.525-0.63-1.05-0.63c-0.525,0-1.051,0.21-1.471,0.421
	c-0.946,0.42-1.681,1.366-1.997,2.311c-0.525,1.576-0.105,3.362,0.841,4.727c-1.156,0.316-2.312,0.21-3.467-0.209
	c-0.21-0.105-0.525-0.21-0.631-0.42c-0.21-0.315-0.315-0.735-0.315-1.051c0-0.735,0.105-1.471,0.105-2.311
	c-0.105-0.735-0.525-1.576-1.156-1.786c-1.05-0.315-1.996,0.84-2.101,1.891s0.42,2.101,0.63,3.152
	c0.105,0.315,0.105,0.63,0.105,0.84c-0.105,0.315-0.315,0.525-0.525,0.736c-1.05,0.945-2.416,1.47-3.887,1.366
	c-0.42,0-0.841-0.105-0.946-0.525c-0.105-0.21,0-0.42,0-0.631c0.21-1.155,0.105-2.626-0.945-3.257
	c-0.946-0.63-2.312-0.105-2.837,0.736c-0.525,0.946-0.42,2.206,0.105,3.152c0.21,0.315,0.42,0.63,0.42,1.051
	c0,0.315-0.105,0.524-0.315,0.735c-1.05,1.576-3.046,2.626-4.938,2.731c0.945-1.681,1.156-3.887,0.105-5.568
	c-1.261-1.996-4.518-2.312-5.778-0.105c-1.471,2.417-0.945,5.358,1.051,7.25v0.105c-0.315,0.525-1.051,0.315-1.576,0.21
	c-0.84-0.315-1.681-0.945-1.891-1.891c-0.105-0.315,0-1.155-0.42-1.26c-0.315-0.105-0.525,0.209-0.63,0.42
	c-0.21,0.315-0.105,0.735-0.105,1.155c0.105,1.156,0.84,2.312,1.786,2.942c1.051,0.631,2.312,0.736,3.467,0.42
	c0.735-0.21,1.261-0.735,1.996-0.84c0.525-0.105,1.051-0.105,1.681-0.21c2.416-0.21,4.517-1.786,6.303-3.361
	c0.42-0.42,0.946-0.841,1.576-1.051c0.42-0.105,0.945,0,1.366,0c2.626,0.21,5.253-1.051,6.619-3.362
	c1.471,0.946,3.257,1.156,4.938,0.84c1.05-0.209,2.101-0.735,3.151-1.05c2.101-0.736,4.308-0.946,6.619-1.156
	c1.681-0.105,3.361-0.315,4.938-0.105c0.84,0.105,1.576,0.315,2.417,0.63c0.525,0.21,0.84,0.631,1.366,0.735
	C129.406,178.529,130.036,178.319,129.826,177.583 M86.542,183.677c-1.681-1.261-1.681-4.097,0-5.253
	c1.051-0.735,1.576,0.84,1.681,1.576C88.433,181.47,87.592,182.837,86.542,183.677 M113.437,174.747
	c-0.105,0.21-0.21,0.315-0.315,0.525c-0.105,0.21-0.315,0.42-0.525,0.63c-0.21,0.21-0.21,0.21-0.42,0.105
	c-0.21-0.105-0.42-0.525-0.525-0.735c-0.525-1.051-0.42-1.997,0.21-2.942c0.42-0.735,1.156-0.63,1.576,0.105
	C113.857,173.171,113.752,174.011,113.437,174.747"/>
<path fill="none" stroke="#FFFFFF" stroke-width="0.4642" stroke-miterlimit="10" d="M251.274,21.256
	c-1.576,0-3.257-0.315-4.623-1.051c-1.261-0.84-2.101-2.416-1.681-3.887c0.42-1.576,2.206-2.626,3.782-2.311
	c1.051,0.21,1.891,1.051,2.521,1.891c0.63,0.84,1.156,1.786,1.891,2.626c-0.84-1.261-1.576-2.837-1.576-4.413
	c0-1.471,0.946-3.152,2.416-3.677c1.786-0.63,3.677,0.525,4.203,2.207c0.314,1.155,0,2.521-0.421,3.677
	c-0.315,0.735-0.735,1.576-1.156,2.207c0.42-0.631,0.946-1.261,1.366-1.786c1.051-1.366,2.206-2.942,4.097-2.836
	c1.261,0.105,2.522,1.05,2.837,2.311c0.42,1.471-0.525,3.152-1.786,3.992c-1.365,0.841-3.151,1.156-4.728,1.156h0.105
	c1.577,0,3.257,0.315,4.623,1.051c1.261,0.84,2.102,2.417,1.681,3.887c-0.419,1.576-2.206,2.627-3.781,2.312
	c-1.051-0.21-1.891-1.05-2.522-1.891c-0.63-0.841-1.156-1.787-1.891-2.627c0.84,1.261,1.577,2.836,1.577,4.413
	c0,1.471-0.946,3.152-2.417,3.677c-1.786,0.63-3.677-0.525-4.202-2.206c-0.315-1.156,0-2.522,0.42-3.678
	c0.315-0.735,0.735-1.576,1.156-2.206c-0.42,0.63-0.945,1.261-1.366,1.786c-1.05,1.366-2.206,2.941-4.097,2.836
	c-1.261-0.105-2.521-1.051-2.836-2.312c-0.421-1.471,0.525-3.151,1.786-3.992C248.122,21.571,249.804,21.361,251.274,21.256"/>
</svg>
